<?xml version="1.0" encoding="utf-8"?>
<!-- Generator: Adobe Illustrator 24.1.2, SVG Export Plug-In . SVG Version: 6.00 Build 0)  -->
<svg version="1.1" id="Layer_1" xmlns="http://www.w3.org/2000/svg" xmlns:xlink="http://www.w3.org/1999/xlink" x="0px" y="0px"
	 viewBox="0 0 612 1024" style="enable-background:new 0 0 612 1024;" xml:space="preserve">
<style type="text/css">
	.st0{fill:#007902;}
	.st1{fill:#135C32;}
	.st2{fill:#023E08;}
	.st3{fill:#228E2A;}
	.st4{fill:#2B9233;}
	.st5{fill:#7BB97F;}
	.st6{fill:#1A8A22;}
	.st7{fill:#81BD85;}
	.st8{fill:#35973C;}
	.st9{fill:#037E09;}
	.st10{fill:#118619;}
	.st11{fill:#0C8315;}
	.st12{fill:#95C799;}
	.st13{fill:#9DCBA0;}
	.st14{fill:#088211;}
	.st15{fill:#71B576;}
	.st16{fill:#075C80;}
	.st17{fill:#8BC28F;}
	.st18{fill:#14871C;}
	.st19{fill:#C4E0C6;}
	.st20{fill:#8FC493;}
	.st21{fill:#68B16D;}
	.st22{fill:#60AD65;}
	.st23{fill:#3C9A42;}
	.st24{fill:#4DA353;}
	.st25{fill:#88C18C;}
	.st26{fill:#469F4C;}
	.st27{fill:#56A85C;}
	.st28{fill:#85BF89;}
	.st29{fill:#A1CEA4;}
	.st30{fill:#409C46;}
	.st31{fill:#B5D8B7;}
	.st32{fill:#ACD3AF;}
	.st33{fill:#B7D9BA;}
	.st34{fill:#94C797;}
	.st35{fill:#BEDDC1;}
	.st36{fill:#045419;}
	.st37{fill:#AED4B0;}
	.st38{fill:#054814;}
	.st39{fill:#E0EFE1;}
	.st40{fill:#D9EBDA;}
	.st41{fill:#CAE3CC;}
	.st42{fill:#D5E9D6;}
	.st43{fill:#D0E6D2;}
	.st44{fill:#E9F3EA;}
	.st45{fill:#F0F7F1;}
	.st46{fill:#F8FBF8;}
</style>
<path class="st0" d="M234.4,671.7c10-10.4,20-20.8,30-31.1c3.7-3.9,7.6-7.6,11.4-11.4c7.6-7.8,15.3-15.6,22.9-23.5
	c5.8-6,11.6-12,17.4-18c7.1-7.4,14.3-14.7,21.4-22c6.3-6.5,12.6-13,18.9-19.5c13.6-14,27.1-27.9,40.7-41.9c6-6.2,12-12.4,18.1-18.6
	c6.8-7,13.7-14.1,20.5-21.1c6.4-6.6,12.7-13.1,19.1-19.7c6.4-6.6,12.9-13.3,19.3-19.9c6.8-7,13.5-13.9,20.3-20.9
	c12.2-12.5,24.3-25.1,36.7-37.4c0.2,1.7,0.2,3.2,0.2,4.7c0,97.8,0,195.7,0,293.5c0,1.7,0.1,3.4,0.1,5.1c-5.7,5.6-11.4,11.2-17.5,17
	c-5.8,5.1-11.4,10.1-17.1,15.2c0.8,0.3,1.1,0.5,1.3,0.5c17.3,1,34.6,2,51.8,3c11.5,0.7,23,1.4,34.6,2.2c0,0.3,0,0.5,0,1
	c0,19.8,0,39.4,0,59.2c0,6.8,0,13.4,0,19.9c0,1,0.4,2.1,0.6,3.1c-0.4,0.4-0.8,1.1-1.2,1c-7.5-0.7-14.9-1.5-22.4-2.2
	c-5.6-0.5-11.2-0.8-16.9-1.3c-8.6-0.7-17.1-1.6-25.7-2.3c-5.4-0.5-10.8-0.8-16.3-1.3c-8.8-0.7-17.5-1.6-26.3-2.3
	c-5.3-0.5-10.6-0.8-16-1.3c-8.9-0.8-17.7-1.6-26.6-2.3c-5.2-0.4-10.4-0.8-15.7-1.3c-9-0.8-17.9-1.6-26.8-2.3
	c-5.8-0.5-11.6-0.8-17.5-1.3c-8.3-0.7-16.5-1.6-24.7-2.3c-5.5-0.5-11-0.8-16.6-1.3c-7.7-0.6-15.5-1.3-23.6-2c0.9-1,1.5-1.7,2.2-2.4
	c12.5-12.3,25-24.6,37.5-36.9c7.4-7.2,14.8-14.4,22.2-21.7c7.3-7.1,14.7-14.3,22-21.4c7.3-7.1,14.7-14.3,22-21.4
	c7.4-7.2,14.8-14.4,22.3-21.6c3.1-3,6.5-5.9,9.5-9c1.1-1.2,1.9-3.1,2-4.6c0.1-16.1,0.1-32.3,0.2-48.9c0.1-5.3,0.1-10.1,0.1-15.3
	c-5.3,5.1-10.5,9.8-15.5,14.8c-35.5,35.3-71.1,70.6-106.6,106c-24.5,24.4-48.9,48.9-73.3,73.3c-0.8,0.8-1.4,1.9-2,2.9c0,0,0,0-0.2,0
	c-0.4,0.2-0.7,0.5-1,0.7c-4.2,0-8.4,0-12.6-0.2c-3.2-0.2-6.4-0.8-9.7-1.1c-8.3-0.7-16.6-1.2-24.8-1.8c-9.4-0.7-18.7-1.6-28-2.4
	c-9.3-0.8-18.7-1.6-28-2.4c-9.5-0.8-19.1-1.6-28.6-2.4c-9.4-0.8-18.9-1.6-28.3-2.4c-9.2-0.8-18.5-1.6-27.7-2.4
	c-10.3-0.9-20.6-2-30.9-2.9c-6-0.5-12-0.9-18.7-1.3c2-2.4,3.6-4.5,5.4-6.4c4.4-4.9,8.8-9.7,13.2-14.5c6-6.5,12.1-12.9,18.1-19.3
	c6.7-7.3,13.4-14.6,20.1-21.9c6.9-7.5,13.8-15,20.7-22.5c6.9-7.5,13.8-15,20.7-22.5c5.9-6.4,11.7-12.9,17.5-19.3
	c0.7-0.7,1.5-1.4,2.7-2.1c2.6-0.2,4.8-0.4,7-0.6c12.2-1.2,24.5-1.9,36.6-3.7c24.2-3.6,47.3-11.1,69.5-21.4c4.6-2.1,9.2-4,13.8-5.8
	c-2.7,2.9-5.2,5.7-7.8,8.5c-6.1,6.5-12.2,13-18.4,19.5c-12.5,13.1-24.9,26.2-37.4,39.3c-9.2,9.6-18.4,19.2-27.6,28.9
	c-0.6,0.6-1,1.5-1.4,2.2c0,0,0,0-0.1,0.1c-0.2,0.3-0.1,0.4,0.4,0.5c11.1,0.6,21.8,1.2,32.6,1.9c4.5,0.3,9.1,0.9,13.6,1.1
	c3,0.1,7,0.9,9-0.6C226,681.3,230,676.3,234.4,671.7z"/>
<path class="st0" d="M391.5,250.3c3.1-0.4,6.2-1,9.3-1.2c5.8-0.5,11.6-0.8,17.4-1.3c8.2-0.7,16.5-1.6,24.7-2.3
	c5.3-0.5,10.6-0.8,16-1.2c8.8-0.7,17.7-1.6,26.5-2.3c5.2-0.4,10.4-0.8,15.6-1.3c8.9-0.8,17.9-1.6,26.8-2.3c5.5-0.5,11-0.8,16.5-1.3
	c8.6-0.7,17.3-1.6,25.9-2.3c5.6-0.5,11.2-0.8,16.8-1.3c1.4-0.1,2.7-0.4,4.3-0.4c-0.2,0.8-0.6,1.5-1.2,2.1
	c-6.7,7.2-13.5,14.3-20.3,21.5c-13.1,13.7-26.3,27.4-39.4,41.2c-11.3,11.9-22.6,23.8-33.9,35.7c-11.6,12.3-23.3,24.5-34.9,36.7
	c-10.4,10.9-20.8,21.7-31.2,32.5c-4.2,4.4-8.4,8.8-12.6,13.2c-12.8,13.3-25.6,26.7-38.4,39.8c1.7-4.6,3.4-8.9,5.1-13.2
	c11.6-29,18.6-59.2,19.8-90.4c0.6-14.2-0.1-28.4-1.2-42.6c-1.3-16-4.7-31.6-9.1-47C393,258.5,392.3,254.4,391.5,250.3z"/>
<path class="st1" d="M379.6,456c12.8-13.3,25.6-26.7,38.4-40c4.2-4.4,8.4-8.8,12.6-13.2c10.4-10.8,20.8-21.6,31.2-32.5
	c11.7-12.2,23.3-24.5,34.9-36.7c11.3-11.9,22.6-23.8,33.9-35.7c13.1-13.7,26.3-27.4,39.4-41.2c6.8-7.1,13.5-14.3,20.3-21.5
	c0.5-0.6,0.9-1.3,1.4-2.1c2.8,7.3,5.6,14.8,8.2,22.3c0.3,0.8-0.4,2.1-1,2.8c-4.1,4.5-8.3,8.8-12.5,13.2c-7.1,7.4-14.3,14.6-21.4,22
	c-9.3,9.6-18.6,19.3-27.8,29c-9.7,10.1-19.4,20.2-29.1,30.3c-9.2,9.6-18.4,19.2-27.6,28.8c-9.5,9.9-19,19.8-28.5,29.7
	c-9.3,9.7-18.6,19.4-27.9,29c-9.6,10-19.3,20.1-28.9,30.1c-9.3,9.7-18.6,19.4-27.8,29c-9.4,9.8-18.8,19.6-28.3,29.5
	c-9.3,9.7-18.6,19.4-27.8,29c-9.6,10-19.3,20.1-28.9,30.1c-9.3,9.7-18.5,19.3-27.8,29c-9.5,9.9-19,19.8-28.4,29.6
	c-4.7,4.9-9.4,9.7-14,14.6c-2.7,2.9-5.4,5.8-8.3,9c-11.6,3.9-22.9,7.6-34.2,11.2c-1.3,0.4-2.7,0.6-4,0.8c0.5-0.7,0.8-1.6,1.4-2.2
	c9.2-9.6,18.4-19.2,27.6-28.9c12.5-13.1,25-26.2,37.4-39.3c6.2-6.5,12.3-13,18.4-19.5c2.6-2.8,5.1-5.6,7.9-8.6
	c6.7-7,13.1-13.7,19.7-20.5c1.7-1.8,3.3-3.4,4.8-5.1c5.3-5.8,10.7-11.6,16.2-17.6c2.1-2,4.2-3.9,6.1-5.9c9.3-9.6,18.5-19.3,27.7-29
	c0.7-0.8,1.2-1.8,2-2.8c7.4-7.5,14.6-14.9,21.8-22.2c0.5-0.5,0.9-1.1,1.5-1.7c6.5-6.7,12.8-13.4,19.1-20
	C378.1,458.1,378.8,457,379.6,456z"/>
<path class="st1" d="M358.6,347.2c-5.1,5.5-10.2,11.1-15.2,16.6c-8.8,9.5-17.5,19.1-26.3,28.7c-6,6.6-12,13.2-18,19.8
	c-8.5,9.4-17.1,18.7-25.6,28c-6.1,6.7-12.2,13.4-18.4,20.2c-8.7,9.5-17.4,19-26,28.4c-6,6.6-12,13.2-18,19.8
	c-8.8,9.6-17.5,19.1-26.3,28.7c-5.9,6.5-11.9,13-17.8,19.6c-9.3,10.3-18.5,20.6-27.9,30.9c-5.1,5.6-10.4,11.1-15.6,16.8
	c-7.2,7.9-14.4,15.9-21.6,23.8c-0.5,0.6-1.2,1.1-1.9,1.3c-14.5,2.8-28.9,5.6-43.5,8.2c3.6-4.4,7.4-8.6,11.2-12.8
	c5.3-6,10.6-12,16.1-18.1c2.9-3.2,5.6-6.3,8.4-9.5c2.4-2.6,4.7-5.2,7.1-7.8c2.2-2.5,4.3-4.8,6.5-7.3c2.9-3.2,5.6-6.3,8.4-9.4
	c3.1-3.4,6-6.7,9-10.1c2.5-2.8,4.7-5.4,7.2-8.2c2.6-2.7,5-5.3,7.6-8c2.6-2.8,5.1-5.5,7.6-8.4c3-3.4,5.9-6.7,9-10.2
	c3.3-3.6,6.4-7.1,9.8-10.7c4-4.4,7.8-8.8,11.7-13.3c4.2-4.6,8.3-9.1,12.6-13.7c5.6-6.2,11.1-12.3,16.7-18.5
	c12.8-14.1,25.5-28.1,38.1-42.2c8.4-9.4,16.8-18.8,25.4-28.3c5.8-6.4,11.5-12.8,17.3-19.2c3.8-4.2,7.5-8.4,11.4-12.6
	c4.1-4.5,8-8.9,12.1-13.5c3.8-4.2,7.5-8.4,11.4-12.6c3.4-3.5,6.7-6.9,10-10.3c0.1,0.1,0.3,0.1,0.5,0.3
	C340.8,338.1,349.7,342.6,358.6,347.2z"/>
<path class="st1" d="M240.8,262.9c7,3.9,14,7.7,21.1,11.6c4.3,2.4,8.7,4.8,13.3,7.3c-1.7,2.1-3.2,4-4.8,5.8
	c-6.1,7-12.3,13.9-18.4,20.9c-6,6.9-11.9,14-17.9,20.9c-4.7,5.4-9.5,10.6-14.1,16c-6,6.9-11.9,14-17.9,20.9
	c-4.7,5.4-9.6,10.8-14.4,16.2c-6.2,7.1-12.4,14.3-18.6,21.5c-1.9,2.2-3.9,4.5-6,6.6c-1.8,1.9-3.2,4-2.7,7.3c-0.2,0.7-0.4,1-0.6,1
	c-0.1-4.9-0.1-4.9-4.6-5.7c-10.8-2-21.6-4.1-32.5-6.1c-3.6-0.7-3.6-0.6-3.6,3.1c0,18.5,0,37-0.2,55.5c-0.3-0.7-0.4-1.6-0.5-2.7
	c0-4.1,0-7.9,0-12c0-4.9,0-9.5,0-14.3c0-4.3,0-8.3,0-12.5c0-3.7,0-7.1,0-10.8c0.3-2.9,0.6-5.6,1-8.3c0.1-0.1,0.2-0.4,0.4-0.4
	c0.3-0.2,0.4-0.3,0.6-0.7c2.1-2.4,4-4.7,6.1-7.1c2.3-2.8,4.4-5.5,6.7-8.3c1.4-1.4,2.7-2.8,4.1-4.2c2.4-2.8,4.7-5.5,7.2-8.4
	c8.1-9.4,16-18.7,24-28c2.2-2.6,4.2-5.2,6.4-7.8c1.7-1.8,3.1-3.5,4.8-5.3c1.8-2.1,3.5-4.1,5.3-6.1c1.7-1.9,3.2-3.8,4.9-5.8
	c1.8-2.1,3.5-4.1,5.3-6.1c2.4-2.8,4.6-5.4,7-8.2c2.1-2.4,4-4.8,6.2-7.2c2.8-3.3,5.5-6.5,8.3-9.8c3.5-3.9,6.8-7.8,10.2-11.8
	C231.6,273.9,236.2,268.4,240.8,262.9z"/>
<path class="st2" d="M531.6,669.7c-0.2-1.6-0.3-3.3-0.3-5c0-97.8,0-195.7,0-293.5c0-1.5,0-3-0.1-4.7c3.4,2.8,6.7,5.8,10.1,8.8
	c1,0.9,1.9,1.7,2.8,2.9c-0.1,1.8-0.3,3.1-0.3,4.5c0,91.5,0,183,0,274.5c-1.9,2-3.7,4-5.6,5.9C536.1,665.4,533.9,667.5,531.6,669.7z"
	/>
<path class="st1" d="M251.8,762.4c0.4-0.9,1-2,1.8-2.8c24.4-24.5,48.8-48.9,73.3-73.3c35.5-35.4,71-70.7,106.6-106
	c5-5,10.2-9.7,15.5-14.8c0,5.2,0,10-0.1,15c-1,1-1.9,1.8-2.8,2.6c-17.4,17.4-34.7,34.9-52.1,52.2c-19.3,19.2-38.7,38.4-58.1,57.5
	c-17.1,16.9-34.2,33.9-51.5,50.6c-2.7,2.6-6.5,4.2-9.8,6.1c-7.2,4.2-14.4,8.2-21.6,12.4C252.8,762.2,252.4,762.3,251.8,762.4z"/>
<path class="st3" d="M360.4,365.6c3-3.2,5.9-6.5,9.2-9.9c0.9,0.7,2.1,1.6,2,2.3c-1.1,8.9-2,17.8-3.7,26.5
	c-4.8,25.1-13.2,48.9-25.6,71.3c-14.6,26.4-33.2,49.4-56.3,68.9c-17.2,14.5-36,26.4-56.5,35.8c-19.8,9-40.4,15-61.8,18.8
	c-0.8,0.1-1.8-0.6-2.7-0.9c3.1-3.5,6.1-7.1,9.5-10.5c1.4,0.2,2.6,0.7,3.6,0.5c29.1-6.1,56-17.5,80.7-34
	c17.5-11.7,33.2-25.5,47.1-41.4c11.3-13.1,21.2-27.1,29.4-42.3c13.6-25,22.2-51.7,26.2-79.8C361.6,369.1,360.7,367.3,360.4,365.6z"
	/>
<path class="st4" d="M360.2,365.6c0.5,1.7,1.4,3.5,1.2,5.1c-4,28.2-12.7,54.8-26.2,79.8c-8.2,15.2-18.1,29.2-29.4,42.3
	c-13.8,16-29.5,29.8-47.1,41.4c-24.7,16.4-51.6,27.8-80.7,34c-1,0.2-2.2-0.2-3.4-0.6c0-0.4,0.1-0.5,0.5-0.8c0.4-0.3,0.5-0.4,0.6-0.5
	c3.1-3.4,6.3-6.8,9.9-10.2c2-0.3,3.6-0.5,5.1-0.9c18.6-5.4,36.3-13,53-22.9c21.9-13.1,41.1-29.3,57.5-48.8
	c14.1-16.8,25.5-35.3,34.2-55.4c6.6-15.2,11.5-31,14.4-47.3c0.2-0.8-0.5-1.8-0.8-2.7c0.4-0.7,0.8-1.5,1.3-2.1
	C353.5,372.6,356.8,369.2,360.2,365.6z"/>
<path class="st5" d="M268.9,401.4c-8.4,9.4-16.8,18.9-25.2,28.2c-12.6,14-25.3,28-38.4,42.2c-1.9,0.7-3.6,1.2-5.1,1.9
	c-3.9,1.8-7.6,4-11.5,5.6c-25,10.3-50.8,14.4-77.8,11.2c-16.6-2-32.5-6.3-47.6-13.5c-2.3-1.1-4.8-1.8-7.2-2.9
	c-0.2-0.7-0.3-1.1-0.5-1.6c0-2.6,0-5.2,0.1-8.1c0.1-0.3,0.4-0.3,0.6-0.3c2.6,1.2,5.1,2.3,7.5,3.5c27.3,13.8,56.3,18,86.4,13.5
	c35.2-5.3,64.5-21.8,87.8-48.7c12.4-14.3,21.5-30.6,27.5-48.5c5.4-16,7.6-32.6,7.1-49.5c-0.3-11-1.8-21.8-4.4-32.4
	c-0.4-1.7-1.5-3.1-2.3-4.7c1.4-1.7,2.8-3.4,4.4-5.3c0.3-0.3,0.3-0.4,0.4-0.5c0,0,0-0.1,0.2-0.2c0.3-0.2,0.4-0.3,0.4-0.4
	c0.1-0.2,0.2-0.4,0.7-0.6c1.1,1,2.2,2,2.6,3.2c5.7,18.5,7.9,37.4,6.4,56.8c-1.3,16.3-5,31.9-11.2,47.1
	C269.3,398.6,269.2,400.1,268.9,401.4z"/>
<path class="st6" d="M164.8,578.4c1.1,0.2,2.1,1,2.9,0.8c21.3-3.8,42-9.7,61.8-18.8c20.5-9.4,39.3-21.3,56.5-35.8
	c23.1-19.4,41.7-42.5,56.3-68.9c12.4-22.4,20.8-46.2,25.6-71.3c1.7-8.8,2.6-17.7,3.7-26.5c0.1-0.8-1.1-1.7-1.9-2.5
	c1.5-1.9,3.3-3.7,5-5.6c0.8-0.9,1.5-2,2.6-3.2c0.5-0.2,0.7-0.3,1.1-0.1c0.3,1.3,0.6,2.4,0.6,3.4c-0.3,5.5-0.6,11.1-1.2,16.6
	c-1.4,15.6-4.8,30.8-9.4,45.8c-5.6,18.1-13.1,35.4-22.6,51.9c-9.4,16.2-20.3,31.4-33.3,44.9c-8.9,9.3-18.6,18-28.5,26.2
	c-18,14.8-38.1,26.3-59.6,35.2c-20.4,8.5-41.7,13.8-63.5,17c-1.1,0.2-2.4-0.7-3.6-1C159.6,583.9,162.1,581.2,164.8,578.4z"/>
<path class="st7" d="M265.8,297.5c1,1.5,2.1,3,2.5,4.6c2.6,10.6,4,21.4,4.4,32.4c0.5,17-1.7,33.5-7.1,49.5
	c-6,17.9-15.1,34.2-27.5,48.5c-23.4,26.9-52.7,43.4-87.8,48.7c-30.1,4.5-59.1,0.3-86.4-13.5c-2.4-1.2-4.8-2.3-7.5-3.7
	c-0.4-0.9-0.5-1.6-0.7-2.2c0-0.5,0-0.9,0.1-1.8c0.2-1.5,0.3-2.5,0.6-3.6c1.1,0.3,1.9,0.6,2.7,1c4,2,7.9,4.2,11.9,6.1
	c24.7,11.5,50.6,15.1,77.4,11.3c27.7-4,52.1-15.6,72.8-34.4c12.4-11.2,22.4-24.5,30-39.5c7.9-15.7,12.7-32.3,14.2-49.9
	c1.3-14.7,0.4-29.2-3-43.5c-0.3-1.3-1.5-2.3-2.3-3.4c0.6-0.7,1.1-1.4,1.9-2.3c0.3-0.3,0.4-0.4,0.4-0.6c0.1-0.2,0.3-0.4,0.7-0.7
	c0.4-0.2,0.5-0.4,0.6-0.5c0,0,0-0.1,0.1-0.1c0.3-0.2,0.4-0.3,0.5-0.5c0,0,0-0.1,0.1-0.1c0.3-0.2,0.4-0.3,0.5-0.5
	C265.1,298.3,265.3,298,265.8,297.5z"/>
<path class="st8" d="M348.9,378.2c0.4,0.8,1.1,1.8,0.9,2.6c-3,16.3-7.8,32.1-14.4,47.3c-8.7,20.1-20.1,38.6-34.2,55.4
	c-16.4,19.5-35.6,35.7-57.5,48.8c-16.7,10-34.4,17.5-53,22.9c-1.5,0.4-3.1,0.6-4.9,0.9c3.7-4.5,7.7-9,12-13.4
	c1.3,0.2,2.4,0.7,3.2,0.4c8.2-3.4,16.5-6.5,24.4-10.4c16.1-8,30.9-17.9,44.6-29.6c11.4-9.8,21.5-20.6,30.7-32.4
	c13-16.7,23.1-35,30.6-54.8c2.8-7.4,4.8-15.1,7.2-22.7c0.4-1.2,0.7-2.5-1.3-2.5C341,386.6,344.8,382.4,348.9,378.2z"/>
<path class="st9" d="M379.6,455.7c-0.8,1.3-1.5,2.3-2.3,3.3c-6.3,6.7-12.6,13.3-19.2,19.9c0.3-1.4,0.7-2.8,1.3-4.1
	c5.9-11.9,12.4-23.4,17.5-35.6c11.4-27.4,17.9-56.1,19.2-85.7c0.6-14.6,0-29.4-1.2-44.1c-1.4-17.4-5.3-34.4-10.6-51
	c-0.8-2.4-1.1-5-1.7-7.5c2.8-0.2,5.6-0.4,8.7-0.6c1.1,4.1,1.8,8.2,2.9,12.2c4.4,15.4,7.8,31.1,9.1,47c1.1,14.1,1.8,28.4,1.2,42.6
	c-1.2,31.2-8.2,61.4-19.8,90.4C382.9,446.8,381.2,451.1,379.6,455.7z"/>
<path class="st10" d="M148.8,595.7c1.2-1.3,2.3-2.5,3.7-4c3.3-0.3,6.4-0.4,9.4-0.8c25-3.1,48.9-10,71.8-20.5
	c31.5-14.4,59.1-34.2,82.5-59.9c10.7-11.8,20.3-24.2,28.6-37.7c16.3-26.5,27.7-54.9,33.5-85.4c1.8-9.3,3.1-18.6,4-28
	c0.6-5.9,0.1-11.9,0.3-18c1.5-1.6,3-3.1,4.5-4.2c0.3,1.5,0.8,2.8,0.7,4.1c-0.3,5.9-0.5,11.9-1.1,17.8c-1.1,9.9-2.1,19.8-3.9,29.5
	c-5.2,27.7-15.2,53.8-29.1,78.3c-13,22.9-29.1,43.3-48.5,61.2c-14.2,13.1-29.4,24.6-46.1,34.3c-20.8,12.2-42.8,21.6-66.3,27.2
	c-13.3,3.1-26.9,4.9-40.5,7.1C151.2,596.9,150,596.1,148.8,595.7z"/>
<path class="st11" d="M148.6,595.8c1.4,0.3,2.6,1.2,3.7,1c13.5-2.2,27.2-4,40.5-7.1c23.5-5.5,45.5-15,66.3-27.2
	c16.6-9.7,31.9-21.2,46.1-34.3c19.4-17.9,35.4-38.4,48.5-61.2c13.9-24.5,23.9-50.5,29.1-78.3c1.8-9.7,2.8-19.6,3.9-29.5
	c0.7-5.9,0.9-11.9,1.1-17.8c0.1-1.3-0.4-2.5-0.6-4.2c1.3-1.8,2.5-3.1,3.7-4.2c0,6.1,0.3,11.9-0.1,17.7c-0.7,10.1-1.5,20.2-3,30.2
	c-4,26.7-12.5,51.9-24.5,76c-7.3,14.8-16.3,28.7-26.3,41.8c-1,1.3-1.6,2.9-2.3,4.4c-0.6,0.9-1.1,1.9-1.9,2.7
	c-9.2,9.7-18.5,19.3-27.7,29c-1.9,2-3.9,3.9-6.3,5.9c-1.2,0.5-2,0.8-2.7,1.3c-3.1,2.3-6.1,4.8-9.2,7.1
	c-15.3,11.2-31.2,21.5-48.7,28.7c-13,5.4-26.3,10.5-39.7,14.6c-16.7,5.1-34.1,7.8-51.6,9c-0.7,0-1.5-0.6-2.3-0.9
	C145.9,598.9,147.2,597.4,148.6,595.8z"/>
<path class="st12" d="M240.8,326.1c2.2-2.5,4.3-4.9,6.8-7.5c0.7,0.5,1.4,1.2,1.5,1.9c0.5,3.7,1.1,7.5,1.3,11.2
	c0.6,14-0.7,27.8-4.8,41.2c-5.6,18.7-15,35.2-28.4,49.4c-10.9,11.6-23.6,20.6-38.1,27.2c-16.2,7.4-33.3,11.1-51.2,10.9
	c-1,0-2.1-0.8-3-1.5c2.2-2.6,4.4-5.1,6.6-7.3c0.7,0.5,1.3,1,1.9,1c3.2-0.1,6.4-0.2,9.5-0.6c19.3-2.6,36.9-9.5,52.7-20.9
	c17.3-12.5,29.9-28.7,38.3-48.2c7.3-17.1,9.7-35,8.6-53.4C242.5,328.4,241.4,327.3,240.8,326.1z"/>
<path class="st13" d="M240.6,326.2c0.8,1.1,1.9,2.2,1.9,3.4c1,18.4-1.3,36.3-8.6,53.4c-8.4,19.5-21,35.7-38.3,48.2
	c-15.8,11.4-33.4,18.3-52.7,20.9c-3.1,0.4-6.3,0.5-9.5,0.6c-0.6,0-1.2-0.5-1.8-1.2c2.4-3.1,4.8-5.8,7.5-8.4c1.9,0.1,3.6,0.3,5.2,0.1
	c21.6-3.1,40.4-12.4,56.4-27.1c10.1-9.3,18-20.1,23.7-32.6c6.6-14.3,10.2-29.2,9.8-45c0-1-1.1-1.9-1.7-2.8c1.6-2,3.2-4.1,4.8-6
	C238.3,328.5,239.4,327.4,240.6,326.2z"/>
<path class="st14" d="M334.9,503c0.6-1.4,1.2-3,2.2-4.2c10-13.2,19-27,26.3-41.8c11.9-24.1,20.5-49.4,24.5-76
	c1.5-10,2.3-20.1,3-30.2c0.4-5.8,0.1-11.7,0.2-17.9c0.7-1.2,1.3-1.9,2.3-3.2c-1.9,0-3.1,0-4.2-0.3c-0.4-6.2-0.6-12.1-1.3-18
	c-2.2-18.9-6-37.4-12-55.5c-0.4-1.3-0.3-2.9-0.4-4.3c2.2-0.2,4.4-0.4,6.9-0.6c0.8,2.5,1.2,5.1,1.9,7.6c5.4,16.6,9.2,33.6,10.6,51
	c1.2,14.6,1.9,29.4,1.2,44.1c-1.3,29.6-7.8,58.3-19.2,85.7c-5.1,12.2-11.6,23.7-17.5,35.6c-0.6,1.3-1.1,2.7-1.5,4.2
	c-0.3,0.7-0.7,1.3-1.2,1.8C349.5,488.1,342.2,495.5,334.9,503z"/>
<path class="st15" d="M56.2,474.3c2.4,0.9,4.9,1.6,7.1,2.7c15.1,7.2,31,11.5,47.6,13.5c27,3.2,52.8-0.9,77.8-11.2
	c3.9-1.6,7.6-3.8,11.5-5.6c1.5-0.7,3.1-1.2,4.9-1.8c-5.2,6.1-10.7,12.2-16.6,18.4c-3.4,1.1-6.5,1.9-9.5,2.9
	c-13.6,4.7-27.7,7.2-42,7.8c-9.3,0.4-18.6-0.3-27.9-1.1c-13.9-1.1-27.1-4.9-40.1-9.9c-4.4-1.7-8.9-3.4-13.3-5.1c0-3-0.1-6,0-9.4
	C56,475,56.1,474.7,56.2,474.3z"/>
<path class="st16" d="M584.5,707.7c-11.5-0.7-23-1.4-34.6-2.1c-17.3-1-34.6-2-51.8-3c-0.3,0-0.5-0.2-1.3-0.5
	c5.8-5.2,11.3-10.1,17-15.1c6,0.2,11.9,0.3,17.7,0.7c8.5,0.5,17.1,1.2,25.6,1.8c4,0.3,8.1,0.5,12.1,0.6c6,0.2,12,0.4,18.1,0.6
	c1.9,0.1,3.9,0.5,5.8,1.1c-0.1,0.8-0.3,1.4-0.7,2C589.7,698.6,587.1,703.1,584.5,707.7z"/>
<path class="st17" d="M118.3,463c0.1,0.8,0.3,1.7,0.7,2.4c0.6-0.3,0.9-0.5,1.3-0.6c1.9,0.5,3.7,1.2,5.4,1.1
	c7.7-0.4,15.5-0.6,23.1-1.8c29-4.6,53.4-17.9,73.4-39.5c8.7-9.4,15.7-19.8,21.2-31.3c11.6-24.4,14.8-49.9,10.5-76.5
	c-0.3-1.6-0.8-3-2.8-2.7c1.6-1.9,3.2-3.8,5-5.5c2.8,11.4,4.1,22.8,3.3,34.4c-0.4,5.7-0.5,11.5-1.4,17.2c-3.3,19.8-10.8,38-22.5,54.4
	c-12,16.9-27.1,30.1-45.3,39.8c-23.7,12.6-49,17.1-75.7,14.5c-17.7-1.7-34.2-7-49.7-15.7c-2.8-1.6-5.8-3.1-8.7-4.8
	c-0.2-0.4-0.3-0.7-0.4-1c0-0.3,0-0.5,0.1-1.2c0.2-0.8,0.2-1.3,0.3-2c0.1-1.1,0.1-2,0.4-2.8c1,0.3,2,0.5,2.7,1
	c8.3,5.5,17.2,10.1,26.6,13.4C96.3,459.7,107.1,462.2,118.3,463z"/>
<path class="st18" d="M382.5,341.7c0,5.9,0.4,11.9-0.2,17.8c-0.9,9.4-2.3,18.7-4,28c-5.8,30.5-17.2,58.9-33.5,85.4
	c-8.3,13.5-18,25.9-28.6,37.7c-23.3,25.7-51,45.5-82.5,59.9c-22.8,10.4-46.8,17.4-71.8,20.5c-3,0.4-6.1,0.4-9.3,0.6
	c1.2-1.6,2.7-3.1,4.3-4.8c1.4,0.3,2.7,1.1,3.8,0.9c21.8-3.3,43.1-8.6,63.5-17c21.6-8.9,41.7-20.4,59.6-35.2
	c9.9-8.2,19.6-16.9,28.5-26.2c13-13.5,23.9-28.7,33.3-44.9c9.5-16.4,17-33.7,22.6-51.9c4.6-15,7.9-30.2,9.4-45.8
	c0.5-5.5,0.8-11.1,1.2-16.6c0.1-1.1-0.3-2.1-0.4-3.6C379.8,344.6,381.1,343.1,382.5,341.7z"/>
<path class="st19" d="M194.8,316.6c-1.6,2-3.3,4-5.2,5.8c-0.8-1.6-1.4-3.1-1.9-4.6c-3.6-11.1-10.3-20.2-19.2-27.6
	c-14.5-12-31.3-16.4-49.9-13.7c-16.1,2.4-29.2,10.3-39.2,22.8c-11.5,14.4-15.7,31-13.2,49.3c-0.7,0.1-1.1,0.2-1.9,0.2
	c-1.7,0-3.2,0-4.6-0.2c0-6.2-0.5-12.2,0.1-18.1c1.4-14.8,7.5-27.7,17.6-38.6c4.9-5.4,10.5-9.9,16.8-13.7c1.2-0.7,1.7-2.3,2.6-3.6
	c9.5-0.8,19.1-1.7,28.6-2.4c6.1-0.5,12.1-0.8,18.2-1.2c1.9-0.1,3.9-0.4,6.1-0.3c1.6,1.1,2.8,2.1,4.2,2.7
	C174,281.9,187.5,296.3,194.8,316.6z"/>
<path class="st20" d="M251.1,314.2c2.1-0.2,2.6,1.2,2.8,2.7c4.3,26.6,1.1,52.1-10.5,76.5c-5.5,11.5-12.5,21.9-21.2,31.3
	c-20,21.6-44.4,34.9-73.4,39.5c-7.6,1.2-15.4,1.3-23.1,1.8c-1.7,0.1-3.5-0.6-5.3-1.3c1.4-2,3-3.7,4.5-5.4c1,0.4,2.1,1.3,3.1,1.3
	c17.9,0.2,34.9-3.5,51.2-10.9c14.4-6.6,27.2-15.6,38.1-27.2c13.4-14.2,22.8-30.7,28.4-49.4c4-13.5,5.4-27.3,4.8-41.2
	c-0.2-3.8-0.8-7.5-1.3-11.2c-0.1-0.7-0.8-1.3-1.4-2c0.4-0.8,0.9-1.5,1.6-2.4c0.3-0.3,0.4-0.5,0.5-0.6c0,0,0-0.1,0.1-0.2
	c0.3-0.2,0.4-0.3,0.4-0.4c0,0,0-0.1,0.1-0.2C250.8,314.5,250.9,314.4,251.1,314.2C251,314.3,251,314.2,251.1,314.2z"/>
<path class="st21" d="M55.7,485.4c4.5,1.4,8.9,3.1,13.4,4.8c12.9,5,26.2,8.8,40.1,9.9c9.3,0.8,18.7,1.5,27.9,1.1
	c14.3-0.6,28.4-3.1,42-7.8c3-1,6.1-1.8,9.3-2.8c-3.9,4.5-8,8.9-12.4,13.6c-1.6,0.4-2.9,0.5-4.2,0.8c-19.3,5.1-38.9,6.4-58.8,4.8
	c-15.9-1.3-31.2-5-46-10.6c-3.7-1.4-7.5-2.5-11.2-3.8C55.8,492,55.7,488.8,55.7,485.4z"/>
<path class="st22" d="M55.7,495.5c3.8,1,7.6,2.1,11.3,3.5c14.9,5.7,30.1,9.3,46,10.6c19.9,1.6,39.5,0.3,58.8-4.8
	c1.2-0.3,2.5-0.5,4-0.7c-3.6,4.3-7.4,8.6-11.6,13c-1.3,0-2.3-0.1-3.3,0c-10.5,1-21.1,2.6-31.6,3c-7.8,0.3-15.6-0.8-23.4-1.6
	c-14.3-1.5-28.1-5.2-41.6-10.2c-2.9-1.1-5.8-2-8.7-3C55.8,502.2,55.7,499,55.7,495.5z"/>
<path class="st9" d="M277.9,563.4c-6.4,6.7-12.9,13.4-19.5,20.3c-4.8,2.1-9.5,4-14,6.1c-22.2,10.3-45.3,17.8-69.5,21.4
	c-12.1,1.8-24.4,2.5-36.6,3.7c-2.2,0.2-4.3,0.4-6.8,0.5c2.3-2.9,4.9-5.8,7.9-8.7c1.6,0.1,2.8,0.5,3.9,0.3c10.2-1.1,20.5-2,30.7-3.6
	c18.8-3,37-8.3,54.7-15.4c16-6.4,31.2-14.5,45.8-23.6C275.4,563.8,276.7,563.7,277.9,563.4z"/>
<path class="st15" d="M269.1,401.3c0.1-1.3,0.2-2.7,0.7-3.9c6.1-15.1,9.9-30.7,11.2-47.1c1.5-19.4-0.7-38.3-6.4-56.8
	c-0.4-1.2-1.5-2.1-2.4-3.2c1.8-2.3,3.7-4.6,5.9-7.2c0.1-0.2,0.2-0.5,0.2-0.5c0.2-0.2,0.4-0.4,1-0.6c1.3,0.9,2.6,1.7,3.1,2.9
	c5,14.1,7.7,28.6,8.9,43.6c0.9,12.2,0,24.1-1.9,36.1c-0.9,5.9-2.1,11.7-3.1,17.6C280.6,388.6,274.9,394.9,269.1,401.3z"/>
<path class="st23" d="M337.1,390.7c2,0.1,1.6,1.3,1.3,2.5c-2.4,7.6-4.4,15.3-7.2,22.7c-7.5,19.7-17.6,38.1-30.6,54.8
	c-9.2,11.8-19.3,22.6-30.7,32.4c-13.7,11.8-28.5,21.6-44.6,29.6c-7.9,4-16.2,7.1-24.4,10.4c-0.8,0.3-2-0.2-3-0.5
	c2.2-2.7,4.5-5.3,7.1-7.8c1.7-0.1,3.2,0.2,4.3-0.4c14.8-6.5,29-14,42.1-23.4c17.1-12.3,32.2-26.8,45-43.5
	c10.1-13.2,18.7-27.2,25.3-42.4c3.3-7.6,5.9-15.4,8.8-23.1c0.5-1.4,0.9-2.8-1.3-3.1c2.2-2.3,4.4-4.5,6.7-7c0.3-0.4,0.4-0.5,0.5-0.7
	c0,0,0,0,0.1-0.1C336.9,391,337,390.9,337.1,390.7C337.1,390.7,337.1,390.7,337.1,390.7z"/>
<path class="st24" d="M225.4,512.6c0.6-0.7,1.2-1.4,1.9-2.3c0.2-0.3,0.3-0.5,0.3-0.6c0.2-0.2,0.4-0.3,0.8-0.6
	c0.4-0.3,0.5-0.4,0.6-0.6c0,0,0-0.1,0.1-0.1c0.3-0.2,0.4-0.3,0.5-0.5c4.8-5.3,9.6-10.6,14.5-15.9c7.6-8.3,15.3-16.5,22.9-24.7
	c6.6-7.2,13.2-14.4,19.8-21.6c5-5.5,10.1-10.9,15.3-16.7c0.3-0.3,0.3-0.5,0.3-0.6c0.2-0.2,0.3-0.3,0.8-0.6c0.4-0.3,0.5-0.4,0.6-0.6
	c0,0,0,0,0.1-0.1c0.3-0.2,0.4-0.3,0.5-0.5c1.7-2,3.3-3.9,5.3-5.8c0.3,1.3,0.5,2.7,0,3.8c-1.7,3.7-3.7,7.3-5.6,10.9
	c-10.7,19.3-24,36.4-40.4,51.3c-10.4,9.5-21.8,17.6-33.7,25C228.6,512.5,226.9,512.3,225.4,512.6z"/>
<path class="st25" d="M56.2,448.6c2.9,1.5,5.8,3,8.6,4.6c15.5,8.7,32,14,49.7,15.7c26.7,2.6,52-1.9,75.7-14.5
	c18.2-9.7,33.3-23,45.3-39.8c11.7-16.4,19.2-34.6,22.5-54.4c0.9-5.7,1-11.5,1.4-17.2c0.8-11.6-0.5-23-3.1-34.5
	c0.7-1.1,1.4-1.9,2.4-2.5c0.9,3.1,1.7,5.9,2.3,8.9c2.5,12.9,2.8,25.9,1.3,38.9c-2.1,17.9-7.5,34.8-16.3,50.5
	c-8,14.3-18.2,26.8-30.8,37.3c-10.5,8.7-22,15.7-34.5,21c-21.6,9.1-44.2,12.4-67.4,9.8c-18.6-2.1-36.1-7.9-52.3-17.4
	c-1.6-0.9-3.4-1.4-5.1-2.1c0-0.8-0.1-1.7,0-2.9C56,449.3,56.1,449,56.2,448.6z"/>
<path class="st26" d="M225.2,512.7c1.7-0.4,3.4-0.2,4.6-1c11.9-7.4,23.3-15.5,33.7-25c16.4-14.9,29.7-32,40.4-51.3
	c2-3.6,3.9-7.2,5.6-10.9c0.5-1.1,0.2-2.5,0.2-3.9c3.9-4.4,7.9-8.8,12.4-13.1c0.3,1,0.6,2.1,0.3,2.9c-4.4,9.7-8.5,19.5-13.4,29
	c-8,15.5-18.5,29.2-30.6,41.7c-6.5,6.7-13.5,12.9-20.7,18.9c-12.8,10.6-27,19-41.9,26.2c-0.8,0.4-2,0.1-3,0.1
	c0.8-1.1,1.5-2.3,2.4-3.3C218.4,519.6,221.7,516.2,225.2,512.7z"/>
<path class="st27" d="M55.7,505.7c2.9,0.7,5.9,1.7,8.7,2.7c13.5,5,27.3,8.7,41.6,10.2c7.8,0.8,15.6,1.9,23.4,1.6
	c10.6-0.4,21.1-2,31.6-3c1-0.1,1.9,0,3.1,0.1c-2.9,3.6-6.1,7-9.6,10.7c-6.2,0.6-12.1,1.3-17.9,1.3c-9.6-0.1-19.3-0.4-28.9-1.2
	c-14.9-1.2-29.4-4.9-43.5-9.9c-2.8-1-5.7-1.8-8.5-2.7C55.8,512.4,55.7,509.2,55.7,505.7z"/>
<path class="st28" d="M55.8,453.1c1.8,0.5,3.6,1,5.2,1.9c16.2,9.5,33.7,15.3,52.3,17.4c23.3,2.6,45.8-0.6,67.4-9.8
	c12.6-5.3,24.1-12.3,34.5-21c12.6-10.5,22.8-23,30.8-37.3c8.8-15.7,14.2-32.6,16.3-50.5c1.5-13,1.2-26-1.3-38.9
	c-0.6-2.9-1.4-5.8-2.1-8.9c0.3-0.7,0.7-1.2,1.2-1.8c0.9,1,2.1,2,2.4,3.3c3.4,14.3,4.3,28.8,3,43.5c-1.5,17.6-6.3,34.2-14.2,49.9
	c-7.6,15-17.6,28.2-30,39.5c-20.8,18.8-45.1,30.4-72.8,34.4c-26.8,3.8-52.7,0.3-77.4-11.3c-4-1.9-7.9-4.1-11.9-6.1
	c-0.8-0.4-1.7-0.6-2.8-1.1c-0.4-0.3-0.5-0.4-0.6-0.5C55.7,455,55.7,454.1,55.8,453.1z"/>
<path class="st27" d="M321,343.6c-3.7,4.1-7.3,8.3-11.2,12.2c-0.2-3.1-0.2-6-0.2-8.8c-0.2-9.8,0.1-19.6-0.8-29.4
	c-1.7-16.9-6.3-33.1-12.6-48.9c-0.7-1.6-1.5-2.5-3.3-2.3c2-2.5,3.9-5.1,6-7.4c0.8-0.9,2.4-1,3.9-1.3c0.7,1.5,0.9,2.8,1.4,3.9
	c10.8,24.6,16.2,50.4,16.1,77.3C320.4,340.5,320.8,342,321,343.6z"/>
<path class="st22" d="M292.7,266.4c1.9-0.3,2.8,0.6,3.4,2.2c6.3,15.8,10.9,32,12.6,48.9c1,9.7,0.6,19.6,0.8,29.4
	c0.1,2.9,0,5.8,0,8.9c-3.9,4.7-7.8,9.1-11.9,13.4c0.6-6.2,2-12.3,2.1-18.4c0.3-12.9,0.5-25.8-1.6-38.6c-2-12-5.2-23.7-9.4-35
	c-0.4-1.2-1.8-2.1-2.7-3.1c1.4-1.7,2.8-3.3,4.4-5.3c0.3-0.4,0.4-0.5,0.5-0.7c0,0,0,0,0.1-0.1c0.3-0.2,0.4-0.3,0.5-0.4
	c0,0,0-0.1,0.1-0.1c0.3-0.2,0.4-0.3,0.5-0.5C292.4,266.8,292.5,266.7,292.7,266.4z"/>
<path class="st29" d="M232.4,335.8c0.7,0.9,1.8,1.8,1.8,2.8c0.4,15.8-3.2,30.7-9.8,45c-5.8,12.4-13.7,23.3-23.7,32.6
	c-16,14.7-34.7,24-56.4,27.1c-1.6,0.2-3.3,0-5.1-0.3c2.1-2.8,4.3-5.2,6.7-7.5c1.2,0.3,2.4,0.8,3.4,0.5c17.2-3.6,32.5-11.2,45.5-23
	c11.2-10,19.9-21.9,25.6-35.9c4.3-10.4,7-21.1,7.4-32.4c0-0.6-1.2-1.3-1.8-2c1-1.1,1.9-2.2,3.1-3.6c0.3-0.3,0.3-0.4,0.3-0.5
	c0,0,0-0.2,0.2-0.2c0.3-0.2,0.4-0.3,0.5-0.4c0,0,0-0.1,0.2-0.2c0.3-0.2,0.4-0.3,0.5-0.4c0,0,0-0.1,0.1-0.2c0.3-0.2,0.4-0.3,0.5-0.5
	c0,0,0-0.1,0.1-0.1c0.3-0.2,0.4-0.3,0.5-0.5C232,336.2,232.1,336,232.4,335.8z"/>
<path class="st30" d="M212.6,526.4c1.2-0.1,2.4,0.2,3.2-0.2c15-7.1,29.2-15.5,41.9-26.2c7.2-6,14.2-12.2,20.7-18.9
	c12.1-12.5,22.6-26.3,30.6-41.7c4.9-9.4,9-19.3,13.4-29c0.4-0.8,0.1-2-0.1-3c1-1.5,2.3-3,3.5-4.5c1.1-1.3,2.1-2.5,3.3-3.9
	c2.4,0.2,2,1.6,1.5,3c-2.9,7.7-5.5,15.6-8.8,23.1c-6.6,15.2-15.2,29.3-25.3,42.4c-12.8,16.8-27.9,31.2-45,43.5
	c-13.2,9.4-27.4,17-42.1,23.4c-1.2,0.5-2.6,0.3-4.2,0.3C207.5,532,209.9,529.2,212.6,526.4z"/>
<path class="st24" d="M321.2,343.5c-0.4-1.4-0.8-3-0.8-4.5c0-26.9-5.3-52.7-16.1-77.3c-0.5-1.2-0.8-2.5-1.2-3.9
	c3.7-0.5,7.5-0.7,11.6-0.8c0.7,1.7,1,3.3,1.6,4.7c9.2,22.9,14.7,46.6,14.9,71.4C327.8,336.5,324.6,339.9,321.2,343.5z"/>
<path class="st24" d="M55.7,515.8c2.9,0.6,5.8,1.4,8.6,2.4c14.1,5,28.6,8.7,43.5,9.9c9.6,0.8,19.2,1.1,28.9,1.2
	c5.8,0.1,11.7-0.7,17.8-1.1c-2.6,3.3-5.5,6.6-8.8,10c-5,0.4-9.5,0.8-14.1,0.7c-7-0.2-14.1-0.7-21.1-1.1c-13.4-0.9-26.3-3.8-39.2-7.5
	c-5.1-1.5-10.3-3-15.4-4.5C55.7,522.5,55.7,519.3,55.7,515.8z"/>
<path class="st21" d="M286.1,274.2c1.1,1,2.4,1.8,2.9,3c4.2,11.4,7.4,23,9.4,35c2.2,12.8,1.9,25.7,1.6,38.6
	c-0.2,6.1-1.5,12.2-2.3,18.5c-3.7,4.4-7.3,8.5-11.2,12.7c0.9-5.8,2-11.6,2.9-17.5c1.9-12,2.8-23.9,1.9-36.1
	c-1.1-15-3.9-29.5-8.9-43.6c-0.4-1.2-1.8-2-2.9-3C281.5,279.4,283.7,276.8,286.1,274.2z"/>
<path class="st14" d="M278.1,563.3c-1.3,0.4-2.7,0.5-3.7,1.1c-14.6,9.1-29.8,17.2-45.8,23.6c-17.7,7.1-35.9,12.4-54.7,15.4
	c-10.2,1.6-20.5,2.5-30.7,3.6c-1.1,0.1-2.3-0.2-3.7-0.4c1.5-2,3.1-4,5-6c0.9,0.2,1.7,0.9,2.4,0.8c17.5-1.2,34.8-3.8,51.6-9
	c13.5-4.1,26.7-9.2,39.7-14.6c17.6-7.2,33.5-17.5,48.7-28.7c3.1-2.3,6.1-4.8,9.2-7.1c0.7-0.5,1.6-0.8,2.6-1.2
	c-5.1,5.8-10.4,11.6-15.8,17.5C281.3,559.8,279.8,561.5,278.1,563.3z"/>
<path class="st29" d="M18.2,351.2c0-3.4-0.1-6.8,0-10.6c0.1-0.9,0-1.4,0-1.9c0-6.4-0.1-12.8,0.2-19.5c0.7-1.1,1.3-1.7,1.5-2.5
	c2.7-11.7,6.9-22.7,12.6-33.3c0.4-0.8,0.3-1.8,0.4-2.7c4.4-0.4,8.8-0.8,13.7-1.1c2.3,1.8,0.2,2.8-0.4,3.8
	c-10.9,16.9-16.7,35.3-16.7,55.5c0,4,0.4,7.9,0.3,12c-3.6,0.2-6.9,0.4-10.5,0.5C18.7,351.2,18.4,351.2,18.2,351.2z"/>
<path class="st31" d="M159.6,418.9c0.2-0.3,0.4-0.5,0.6-1c3.5-4.2,7.1-8.3,10.6-12.4c3.1-3.6,6.4-7.1,9.5-10.7
	c5.1-5.9,10.1-12,15.3-17.8c3.4-3.9,6.9-7.5,10.4-11.3c3-3.3,5.9-6.7,9.1-9.8c-0.5,4.3-0.7,8.6-2.1,12.5
	c-7.5,21-21.1,37.3-40.6,48.3c-4.9,2.8-10.6,4.3-15.8,6.2C157.7,421.3,158.7,420.1,159.6,418.9z"/>
<path class="st30" d="M331.2,333.1c-0.3-24.8-5.8-48.5-15-71.5c-0.6-1.5-0.9-3-1.3-4.8c3.6-0.6,7.2-0.9,11.1-1
	c0.7,1.7,1,3.2,1.5,4.5c8.8,23.1,14.2,46.9,14.1,71.9c-3.5,0.4-6.8,0.7-10.1,1C331.5,333.3,331.3,333.2,331.2,333.1z"/>
<path class="st32" d="M29.9,350.7c-0.2-4-0.6-7.9-0.6-11.9c0-20.2,5.7-38.6,16.7-55.5c0.6-1,2.7-2,0.7-3.8c4.4-0.5,9-0.8,14-1.3
	c0.6-0.2,0.7-0.3,0.8-0.4c0.3,0,0.5,0,1,0.2c-0.4,1.4-0.8,2.6-1.6,3.6c-9.3,11.3-15.7,24-18.8,38.4c-2.1,10-2.2,20-1.8,30.2
	C36.7,350.4,33.3,350.6,29.9,350.7z"/>
<path class="st33" d="M118.3,413.4c0,3.4,0.1,6.8-0.2,10.5c-6.4-1.1-12.6-2-18.5-4c-14.3-4.8-26.4-13.1-36.3-24.7
	c-2.2-2.6-4.7-5-7.1-7.8c-0.1-3.3-0.1-6.3-0.1-9.3c1.7-2.2,3.3-4.3,5.2-6.3c1.1,2.2,1.6,4.3,2.8,6.1c4.4,7.1,9.8,13.4,16.3,18.8
	C91.5,405.9,104.1,411.3,118.3,413.4z"/>
<path class="st4" d="M336.5,254.9c3.4-0.4,6.8-0.7,10.5-0.8c1.7,4.9,3.1,9.5,4.6,14.2c6.4,20.4,10.3,41.3,10.4,62.9
	c-3.5,0.2-6.7,0.4-9.9,0.2c-0.4-6.5-0.6-12.8-1.3-19c-2.1-17.1-6.1-33.8-11.9-50.1C338,259.9,337.2,257.4,336.5,254.9z"/>
<path class="st34" d="M118.3,462.7c-11.2-0.5-22-3-32.6-6.8c-9.4-3.4-18.2-7.9-26.6-13.4c-0.7-0.5-1.6-0.7-2.7-1.2
	c-0.4-1.1-0.5-1.9-0.7-2.8c0-0.4-0.1-0.9,0.1-1.8c0.2-3.7,0.3-6.9,0.6-10.1c0.9,0.4,1.7,0.7,2.3,1.2c8.2,6.6,17.3,11.7,27,15.6
	c10.4,4.3,21.2,7.3,32.6,7.7C118.3,454.8,118.3,458.6,118.3,462.7z"/>
<path class="st8" d="M336.2,255c1.1,2.4,1.8,4.9,2.6,7.3c5.8,16.3,9.8,33,11.9,50.1c0.8,6.2,0.9,12.5,1.1,19.1
	c-3.5,0.5-6.7,0.6-9.9,0.8c-0.1-24.9-5.5-48.7-14.3-71.8c-0.5-1.4-0.8-2.8-1.2-4.5C329.5,255.5,332.7,255.2,336.2,255z"/>
<path class="st3" d="M362.2,331c-0.4-21.5-4.3-42.3-10.6-62.8c-1.4-4.6-2.9-9.3-4.3-14.1c3-0.5,6-0.7,9.3-0.6
	c1.9,5.4,3.5,10.5,5.1,15.6c6,20,9.4,40.5,10,61.5C368.3,330.8,365.2,330.9,362.2,331z"/>
<path class="st26" d="M55.7,526c5.2,1.2,10.3,2.8,15.5,4.2c12.8,3.7,25.8,6.5,39.2,7.5c7,0.5,14.1,1,21.1,1.1
	c4.6,0.1,9.1-0.3,14-0.5c-2.2,2.7-4.6,5.4-7.5,8.3c-11.1-0.3-21.7-0.2-32.3-1.3c-15.6-1.6-30.8-5.1-45.5-10.3
	c-1.4-0.5-2.9-0.6-4.4-0.9C55.8,531.5,55.7,528.9,55.7,526z"/>
<path class="st6" d="M371.8,330.5c-0.8-20.9-4.2-41.4-10.2-61.4c-1.5-5.1-3.2-10.2-4.8-15.5c1.6-0.5,3.2-0.7,4.8-0.9
	c1.2-0.2,2.5-0.4,3.9-0.3c1.9,5.6,3.5,10.9,5,16.2c5.8,20.1,9.3,40.6,9.3,61.7C377,330.3,374.4,330.4,371.8,330.5z"/>
<path class="st10" d="M380.1,330.2c-0.3-21-3.7-41.5-9.6-61.6c-1.5-5.3-3.2-10.7-4.8-16.2c3-0.4,6-0.7,9.3-0.8
	c0.4,1.5,0.2,3,0.7,4.3c6,18.1,9.9,36.6,12,55.5c0.7,5.9,0.9,11.9,1,18.1C385.7,329.8,382.9,330,380.1,330.2z"/>
<path class="st35" d="M118.3,413.1c-14.2-1.9-26.9-7.2-38-16.4c-6.5-5.4-11.8-11.7-16.3-18.8c-1.1-1.8-1.7-4-2.5-6.2
	c0-0.2,0-0.2,0.1-0.3c0.3-0.1,0.4-0.3,0.5-0.4c0,0,0-0.1,0.2-0.2c0.3-0.2,0.4-0.3,0.4-0.4c0.1-0.2,0.2-0.4,0.6-0.7
	c0.4-0.3,0.5-0.4,0.6-0.6c1.3-1.8,2.6-3.5,4-5.3c0.1,0,0.2,0.2,0.2,0.4c8,18.7,21.8,30.8,40.7,37.1c3.4,1.2,6.9,2.3,10.3,3.4
	C118.9,407.5,118.7,410.2,118.3,413.1z"/>
<path class="st31" d="M40.6,350.1C40,340,40,329.9,42.2,319.9c3-14.4,9.5-27.1,18.8-38.4c0.8-1,1.2-2.2,1.8-3.5c4-0.6,8-1,12.3-1.2
	c-0.7,1.7-1.5,3.5-2.8,4.7c-10.9,11-18.3,23.9-21.8,39.1c-2.2,9.6-2.6,19.3-1.7,29.1C46,349.9,43.3,350,40.6,350.1z"/>
<path class="st4" d="M123.2,562.9c-2.9,3.3-5.8,6.6-9.1,10c-3.2-0.3-5.9-0.8-8.7-1c-13.7-1.1-27.1-3.8-40.4-7.5
	c-3-0.8-6.2-1.4-9.3-2.1c0-3.4-0.1-6.8,0.2-10.5c1.3-0.1,2.5,0,3.5,0.3C80.2,558.7,101.4,562.4,123.2,562.9z"/>
<path class="st8" d="M123.4,562.7c-22-0.3-43.2-4.1-63.9-10.7c-1-0.3-2.1-0.4-3.4-0.6c-0.3-3-0.3-6,0-9.3c1.6,0.1,3,0.4,4.3,0.8
	c7.4,2,14.7,4.3,22.2,6c14.8,3.3,29.8,5.1,44.9,4.9c1,0,2,0.5,3.1,0.8C128.1,557.3,125.8,560,123.4,562.7z"/>
<path class="st16" d="M379.8,330.2c3.1-0.2,5.9-0.4,9-0.6c1.4,0,2.6,0,4.5,0c-1,1.3-1.6,2-2.3,2.9c-1.3,1.5-2.5,2.8-3.9,4.3
	c-1.5,1.6-3,3-4.5,4.6c-1.5,1.6-2.8,3.1-4.3,4.7c-0.3,0.2-0.6,0.2-1,0.3c-6.2,0.2-12.2,0.4-18.4,0.6c-9.2-4.5-18.1-9-27.2-13.7
	c3.1-0.4,6.4-0.7,9.9-1.1c3.5-0.2,6.7-0.3,10.2-0.6c3.5-0.2,6.7-0.4,10.2-0.6c3.3-0.2,6.3-0.3,9.6-0.6
	C374.4,330.4,377,330.3,379.8,330.2z"/>
<path class="st36" d="M165.5,682.3c1.3-0.3,2.7-0.4,4-0.8c11.3-3.6,22.6-7.3,34.1-11.1c10.2,0.4,20.2,0.8,30.4,1.2
	c-4.1,4.6-8.1,9.7-13.1,13.5c-2,1.5-5.9,0.8-9,0.6c-4.6-0.2-9.1-0.8-13.6-1.1c-10.8-0.7-21.6-1.2-32.6-2
	C165.6,682.6,165.5,682.3,165.5,682.3C165.5,682.3,165.5,682.3,165.5,682.3z"/>
<path class="st2" d="M584.5,707.9c2.6-4.7,5.2-9.3,8-13.7c0.3,1.6,0.3,3,0.3,4.4c0,22.2,0,44.4,0,66.6c0,1.3,0.3,2.5,0.5,3.8
	c-2.6,7.3-5.3,14.6-8.1,22c-0.3-0.9-0.7-1.9-0.7-3c0-6.5,0-13.1,0.1-20.1c0.2-1.1,0.4-1.7,0.4-2.2c0-18.2,0-36.3,0-54.5
	c0-0.9-0.3-1.7-0.5-2.6C584.6,708.4,584.6,708.2,584.5,707.9z"/>
<path class="st32" d="M226,342.9c0.7,0.7,1.9,1.3,1.8,2c-0.4,11.2-3.1,22-7.4,32.4c-5.8,14-14.5,25.8-25.6,35.9
	c-13.1,11.7-28.3,19.4-45.5,23c-1,0.2-2.2-0.2-3.3-0.7c1.4-2,2.8-3.6,4.5-5.2c2.1-0.3,4-0.3,5.8-0.9c14.4-4.3,27-11.9,38-22.2
	c7.6-7.1,13.7-15.5,18.4-24.8c5.5-10.9,9.7-22.2,9.6-34.7c0.8-1.1,1.6-2.1,2.6-3.4c0.3-0.3,0.3-0.4,0.4-0.5c0,0,0-0.2,0.2-0.2
	c0.3-0.2,0.4-0.3,0.4-0.4C225.9,343,225.9,342.9,226,342.9z"/>
<path class="st30" d="M130.6,554.6c-1.2-0.2-2.2-0.7-3.2-0.7c-15.2,0.1-30.2-1.6-44.9-4.9c-7.5-1.7-14.8-4-22.2-6
	c-1.3-0.4-2.7-0.7-4.3-1.1c-0.3-2.4-0.3-4.8-0.3-7.5c1.5,0,3,0.1,4.4,0.6c14.8,5.2,30,8.8,45.5,10.3c10.5,1.1,21.2,1,32.1,1.4
	C135.6,549.3,133.2,551.9,130.6,554.6z"/>
<path class="st37" d="M222.1,347.7c0.2,12.4-3.9,23.7-9.4,34.6c-4.7,9.3-10.8,17.6-18.4,24.8c-11,10.3-23.5,17.9-38,22.2
	c-1.8,0.5-3.7,0.6-5.7,0.7c1.9-2.5,3.9-4.7,6-7c5.3-2.1,11-3.6,15.9-6.3c19.4-11,33-27.2,40.6-48.3c1.4-3.9,1.6-8.3,2.3-12.6
	C217.4,352.9,219.7,350.3,222.1,347.7z"/>
<path class="st35" d="M195,316.5c-7.5-20.2-21.1-34.6-41-43c-1.4-0.6-2.6-1.6-3.9-2.7c5.6-0.8,11.2-1.3,17-1.7
	c1.3,1.2,2.1,2.4,3.3,3.2c11.4,7.3,20.4,16.8,26.9,28.7c1.4,2.5,3.1,4.9,4.6,7.4C199.7,311.1,197.4,313.7,195,316.5z"/>
<path class="st3" d="M55.7,562.5c3.1,0.4,6.3,1,9.3,1.8c13.2,3.7,26.7,6.4,40.4,7.5c2.8,0.2,5.5,0.7,8.5,1.1
	c-2.5,3.1-5.2,6.2-8.1,9.2c-0.9-0.3-1.5-0.7-2.1-0.8c-10-1.8-20.1-3.3-30.1-5.3c-6-1.2-11.9-2.9-17.9-4.3
	C55.7,568.7,55.7,565.7,55.7,562.5z"/>
<path class="st0" d="M83.7,607c-5.3,6-10.6,12-15.9,18c-3.8,4.2-7.5,8.4-11.4,12.8c-0.3-0.7-0.7-1.5-0.7-2.3c0-11.3,0-22.6,0.3-34.1
	c2.9,0.4,5.4,1,8,1.6C70.5,604.3,77.1,605.7,83.7,607z"/>
<path class="st35" d="M96.6,274.8c-0.6,1.2-1.2,2.8-2.3,3.5c-6.3,3.8-11.9,8.3-16.8,13.7c-10.1,10.9-16.1,23.8-17.6,38.6
	c-0.6,5.9-0.1,11.9-0.3,18.2c-1.9,0.4-3.5,0.5-5.2,0.3c0-7.3-0.8-14.4,0.1-21.3c2.5-18.8,11.3-34.3,25.8-46.6
	c1.6-1.3,4.2-2.2,3.9-5.2C88.3,275.6,92.3,275.2,96.6,274.8z"/>
<path class="st31" d="M202.1,308.3c-1.7-2.4-3.4-4.7-4.8-7.3c-6.5-11.9-15.5-21.4-26.9-28.7c-1.2-0.7-2-2-3-3.2
	c5.2-0.6,10.4-1.1,15.9-1.2c0.6,1.1,0.8,2.2,1.5,2.8c3.1,3.1,6.5,5.8,9.4,9c5.8,6.4,10.8,13.4,14,21.5
	C206.1,303.5,204.2,305.9,202.1,308.3z"/>
<path class="st32" d="M208.2,301.1c-3.4-8-8.4-15-14.2-21.4c-2.9-3.2-6.3-6-9.4-9c-0.6-0.6-0.8-1.7-1.2-2.8
	c5.2-0.6,10.4-1.1,15.9-1.2c2.9,3.6,5.6,6.8,8,10.2c3.2,4.7,6,9.6,9,14.5C213.7,294.6,211.1,297.8,208.2,301.1z"/>
<path class="st33" d="M84.1,276c0.5,3-2.2,3.9-3.8,5.2C65.8,293.4,57,309,54.5,327.8c-0.9,6.9-0.1,14-0.4,21.4
	c-1.8,0.4-3.4,0.4-5,0.5c-1.2-9.8-0.8-19.4,1.4-29c3.5-15.2,10.9-28.1,21.8-39.1c1.3-1.3,2-3,3-4.8c2-0.2,4-0.3,6.4-0.3
	c1-0.2,1.5-0.3,2-0.5C83.8,276,83.9,276,84.1,276z"/>
<path class="st6" d="M55.7,572c6,1.2,11.9,2.9,17.9,4c10,1.9,20.1,3.5,30.1,5.3c0.6,0.1,1.2,0.5,2,0.9c-2,2.5-4.1,4.9-6.5,7.2
	c-8.1-1.3-15.8-2.5-23.5-4.1c-6.7-1.4-13.3-3.1-20-4.7C55.7,577.9,55.7,575.1,55.7,572z"/>
<path class="st10" d="M55.7,581c6.7,1.3,13.3,3,20,4.4c7.7,1.6,15.4,2.8,23.3,4.2c-2,2.6-4.3,5.1-7,7.8c-7.8-1.3-15.2-2.7-22.6-4.1
	c-4.6-0.9-9.1-2-13.6-2.9C55.7,587.3,55.7,584.3,55.7,581z"/>
<path class="st14" d="M55.7,590.6c4.6,0.7,9.1,1.8,13.7,2.7c7.4,1.5,14.8,2.8,22.5,4.2c-2.4,3.1-5.1,6.2-8,9.5
	c-6.7-1.2-13.3-2.6-19.9-3.9c-2.6-0.5-5.2-1.2-8-1.9C55.7,597.6,55.7,594.2,55.7,590.6z"/>
<path class="st29" d="M216.5,291.3c-3.2-4.8-6-9.7-9.2-14.4c-2.3-3.5-5.1-6.7-7.7-10.2c5.1-0.6,10.2-1.1,15.2-1.5
	c0.7-0.1,1.4-0.4,2.4-0.3c0.7,1.3,1,2.5,1.6,3.5c2.5,3.8,5.1,7.5,7.7,11.3C223.3,283.5,220,287.4,216.5,291.3z"/>
<path class="st38" d="M48.8,349.8c1.8-0.2,3.4-0.2,5.3-0.3c1.9-0.1,3.6-0.2,5.4-0.3c1.7-0.1,3.1-0.2,4.9,0.1
	c0.3,4.8,0.3,9.4,0.3,13.9c-15.1-3.7-30.2-7.3-45.4-11.2c-0.1-0.3,0-0.5,0-0.5c3.4-0.1,6.7-0.3,10.3-0.5c3.7-0.3,7.1-0.4,10.8-0.6
	C43.3,350,46,349.9,48.8,349.8z"/>
<path class="st34" d="M32.5,280.7c0.1,0.9,0.3,1.9-0.1,2.7c-5.7,10.5-9.9,21.6-12.6,33.3c-0.2,0.8-0.8,1.5-1.5,2.3
	c-0.2-11.7-0.3-23.5-0.2-35.3c0-0.8,1.1-2.1,1.8-2.2C24,281,28.1,280.9,32.5,280.7z"/>
<path class="st20" d="M226.8,279.5c-2.8-3.7-5.4-7.4-7.9-11.2c-0.6-1-0.9-2.1-1.3-3.4c7.6-0.8,15.1-1.5,23-2.1
	C236.2,268.4,231.6,273.9,226.8,279.5z"/>
<path class="st1" d="M544,657.1c-0.2-91.3-0.1-182.8-0.1-274.3c0-1.4,0.2-2.8,0.4-4.3c0.1,91.7,0.1,183.6,0.1,275.5
	C544.4,654.9,544.3,655.9,544,657.1z"/>
<path class="st16" d="M65,363.1c-0.2-4.6-0.3-9.1-0.3-13.9c0.5-0.3,1-0.4,1.9-0.5c2.2-0.2,4-0.4,6-0.5c2.3-0.1,4.3-0.3,6.5-0.4
	c0.8,0.1,1.4,0.2,2.2,0.2c-0.5,0.8-0.8,1.3-1.3,2c-2,2.5-3.9,4.8-5.9,7.2c-0.3,0.1-0.4,0.3-0.5,0.6c-0.2,0.2-0.2,0.3-0.4,0.5
	c-1.8,2-3.4,3.9-5,5.7c0,0-0.1-0.3,0-0.4C67.2,363.5,66.2,363.3,65,363.1z"/>
<path class="st38" d="M593.4,768.7c-0.2-1-0.5-2.2-0.5-3.5c0-22.2,0-44.4,0-66.6c0-1.4-0.1-2.8-0.2-4.5c0.1-0.9,0.3-1.4,0.6-2
	C593.4,717.4,593.4,742.9,593.4,768.7z"/>
<path class="st15" d="M56.3,426.5c-0.1,3.3-0.2,6.5-0.4,10c-0.2-9.5-0.3-19.2-0.3-28.9c0-9.7,0.1-19.4,0.3-29.3
	c0.2,2.9,0.3,5.9,0.3,9.4c0,6.7,0,12.9,0,19.4C56.2,413.7,56.3,420.1,56.3,426.5z"/>
<path class="st15" d="M55.7,438.7c0.2,0.6,0.4,1.4,0.5,2.5c0,1.1-0.1,1.9-0.2,3.1c-0.1,0.2-0.3,0.2-0.3,0.2
	C55.7,442.7,55.7,440.8,55.7,438.7z"/>
<path class="st26" d="M55.7,456.1c0.2-0.2,0.3,0,0.5,0.2c0,1.2-0.1,2.2-0.3,3.5C55.7,458.8,55.6,457.5,55.7,456.1z"/>
<path class="st26" d="M56.2,474.2c-0.1,0.5-0.2,0.8-0.4,1.3c-0.1-0.7-0.2-1.5-0.1-2.6C55.9,473,56,473.5,56.2,474.2z"/>
<path class="st26" d="M55.7,462c0.2,0.4,0.3,1.1,0.5,1.9c0,0.2-0.2,0.2-0.3,0.2C55.7,463.6,55.6,462.9,55.7,462z"/>
<path class="st26" d="M56.1,448.5c-0.1,0.5-0.1,0.8-0.3,1.2c-0.1-0.5-0.2-1.1-0.2-2C55.8,447.7,56,448,56.1,448.5z"/>
<path class="st35" d="M83.4,276c-0.3,0.2-0.8,0.4-1.5,0.5C82.3,276.3,82.7,276.1,83.4,276z"/>
<path class="st26" d="M55.6,444.7c0.1-0.2,0.2-0.2,0.3-0.2c0,0.5,0,0.9-0.2,1.6C55.7,445.8,55.6,445.4,55.6,444.7z"/>
<path class="st34" d="M18.1,338.9c0.1,0.3,0.2,0.8,0.1,1.4C18.1,340,18,339.6,18.1,338.9z"/>
<path class="st34" d="M19.2,351.3c0.2,0,0.1,0.3,0,0.4c-0.4,0-0.7-0.1-1-0.3C18.4,351.2,18.7,351.2,19.2,351.3z"/>
<path class="st1" d="M250.6,763.1c0.1-0.2,0.4-0.4,0.8-0.6C251.3,762.6,251.1,762.8,250.6,763.1z"/>
<path class="st31" d="M61.4,277.8c0,0.2-0.1,0.3-0.4,0.5C61,278.1,61.1,277.9,61.4,277.8z"/>
<path class="st13" d="M229.4,338.9c0.1,0.1,0,0.2-0.1,0.3c-0.1,0-0.1-0.2-0.1-0.2S229.3,338.8,229.4,338.9z"/>
<path class="st13" d="M231.8,336.4c0,0.1-0.1,0.2-0.3,0.4C231.4,336.7,231.5,336.5,231.8,336.4z"/>
<path class="st13" d="M231.2,337c0.1,0.1-0.1,0.2-0.3,0.4C230.8,337.3,230.9,337.1,231.2,337z"/>
<path class="st27" d="M290.9,268.2c0.1,0.1,0,0.3-0.2,0.5C290.7,268.6,290.7,268.4,290.9,268.2z"/>
<path class="st33" d="M62,371.1c0,0.1-0.1,0.3-0.4,0.4C61.6,371.3,61.7,371.2,62,371.1z"/>
<path class="st27" d="M291.5,267.7c0,0.1-0.1,0.2-0.3,0.4C291.1,268,291.2,267.8,291.5,267.7z"/>
<path class="st33" d="M62.6,370.5c0.1,0.1,0,0.2-0.2,0.4C62.3,370.8,62.3,370.6,62.6,370.5z"/>
<path class="st3" d="M175.6,566.5c0,0.1-0.1,0.2-0.3,0.4C175.2,566.8,175.3,566.7,175.6,566.5z"/>
<path class="st33" d="M63.8,369.3c0.1,0.1,0,0.3-0.3,0.4C63.4,369.6,63.5,369.4,63.8,369.3z"/>
<path class="st13" d="M230.6,337.6c0.1,0.1,0,0.2-0.3,0.4C230.2,337.9,230.3,337.7,230.6,337.6z"/>
<path class="st29" d="M225.2,343.6c0.1,0.1,0,0.2-0.1,0.3C224.9,343.9,224.9,343.7,225.2,343.6z"/>
<path class="st29" d="M225.8,343c0.1,0.1,0,0.3-0.2,0.4C225.4,343.3,225.5,343.1,225.8,343z"/>
<path class="st27" d="M292.1,267.1c0.1,0.1-0.1,0.2-0.3,0.4C291.7,267.4,291.8,267.2,292.1,267.1z"/>
<path class="st13" d="M230,338.2c0.1,0.1,0,0.2-0.2,0.4C229.6,338.5,229.7,338.3,230,338.2z"/>
<path class="st8" d="M336.3,391.3c0.1,0.1,0,0.3-0.2,0.5C335.9,391.6,335.9,391.4,336.3,391.3z"/>
<path class="st5" d="M262.2,301.1c0.1,0.1,0,0.2-0.2,0.4C261.9,301.4,261.9,301.3,262.2,301.1z"/>
<path class="st5" d="M263.5,299.9c0.1,0.1,0,0.2-0.3,0.4C263.1,300.2,263.1,300.1,263.5,299.9z"/>
<path class="st5" d="M264,299.3c0,0.1-0.1,0.2-0.3,0.4C263.7,299.6,263.7,299.5,264,299.3z"/>
<path class="st5" d="M264.6,298.7c0,0.1-0.1,0.2-0.3,0.4C264.2,299,264.3,298.9,264.6,298.7z"/>
<path class="st15" d="M270.6,291.6c0.1,0.1,0,0.2-0.1,0.3C270.3,291.9,270.4,291.7,270.6,291.6z"/>
<path class="st26" d="M304.1,426.6c0,0.1-0.1,0.2-0.3,0.4C303.7,426.9,303.8,426.8,304.1,426.6z"/>
<path class="st26" d="M303.5,427.2c0.1,0.1-0.1,0.3-0.3,0.5C303.1,427.6,303.2,427.4,303.5,427.2z"/>
<path class="st26" d="M302.1,428.4c0.1,0.1,0.1,0.2-0.1,0.4C301.8,428.7,301.9,428.6,302.1,428.4z"/>
<path class="st17" d="M249.7,315.5c0.1,0.1,0,0.2-0.2,0.4C249.3,315.7,249.3,315.6,249.7,315.5z"/>
<path class="st15" d="M271.2,291c0.1,0.1,0,0.2-0.2,0.4C270.8,291.3,270.9,291.1,271.2,291z"/>
<path class="st21" d="M278.2,282.7c0.1,0,0.1,0.2,0,0.3C278,282.9,278,282.8,278.2,282.7z"/>
<path class="st17" d="M250.3,314.9c0.1,0.1-0.1,0.2-0.3,0.4C249.9,315.2,250,315,250.3,314.9z"/>
<path class="st26" d="M229.4,507.9c0,0.1-0.1,0.2-0.3,0.4C229,508.2,229.1,508.1,229.4,507.9z"/>
<path class="st26" d="M228.8,508.5c0,0.1-0.1,0.2-0.3,0.4C228.4,508.8,228.5,508.7,228.8,508.5z"/>
<path class="st26" d="M227.4,509.7c0.1,0.1,0.1,0.2-0.1,0.4C227.1,510,227.1,509.8,227.4,509.7z"/>
<path class="st17" d="M250.9,314.3c0,0.1-0.1,0.2-0.3,0.4C250.5,314.6,250.6,314.4,250.9,314.3z"/>
<path class="st8" d="M337,390.8c0,0.1-0.1,0.2-0.4,0.4C336.6,391.1,336.7,390.9,337,390.8z"/>
<path class="st36" d="M584.6,708.9c0.2,0.6,0.5,1.4,0.5,2.3c0,18.2,0,36.3,0,54.5c0,0.6-0.2,1.2-0.4,2
	C584.6,748.3,584.5,728.7,584.6,708.9z"/>
<path class="st1" d="M165.5,682.4c0.1-0.1,0.1,0.2,0.1,0.4C165.3,682.8,165.3,682.6,165.5,682.4z"/>
<path class="st39" d="M168.1,347.7c-7.9,9.3-15.8,18.6-24.1,27.9c-1.4,0.2-2.4,0.2-3.4,0.5c-10.7,3.4-20.9,2.2-30.9-2.9
	c-17.4-8.8-26.9-32.3-16.4-52.6c8-15.5,24.5-23.7,41.8-21c20.7,3.3,35.9,24,32.4,44.7C167.4,345.4,168,346.6,168.1,347.7
	 M100.1,329.8c-1.4,4.8-1.9,9.7-0.8,14.7c3,13.6,14.7,23.9,28.3,24c20,0.2,33.2-17.4,30.3-34.6c-2.4-14.2-14.8-25.1-29.1-25.1
	C115.7,308.8,105,316.5,100.1,329.8z"/>
<path class="st40" d="M168.3,347.6c-0.4-1-0.9-2.2-0.7-3.2c3.4-20.7-11.7-41.3-32.4-44.7c-17.3-2.8-33.9,5.4-41.8,21
	c-10.4,20.3-1,43.8,16.4,52.6c10,5.1,20.2,6.2,30.9,2.9c0.9-0.3,1.9-0.3,3.2-0.4c-2,2.7-4.3,5.5-7,8.3c-5.9-0.1-11.5,0.3-16.8-0.7
	c-22.9-4.1-39.7-25.4-36.8-50.2c2.9-24.3,24.6-43,51.3-39.8c21.9,2.6,39.1,21.5,39.4,43.4c0,1.1,0.4,2.1,0.6,3.2
	C172.5,342.5,170.5,345,168.3,347.6z"/>
<path class="st2" d="M156.6,422.8c-2.1,2.5-4.2,4.7-6.3,7.2c-1.5,1.8-3,3.4-4.5,5.2c-2.3,2.7-4.5,5.1-6.8,7.8
	c-2.5,2.9-4.9,5.6-7.4,8.5c-2.2,2.6-4.4,5.1-6.6,7.7c-1.6,1.9-3.1,3.5-4.8,5.4c-0.3,0.4-0.6,0.6-1.1,0.8
	c-0.1-18.5-0.1-36.9-0.1-55.4c0-3.7,0-3.7,3.6-3.1c10.8,2,21.6,4,32.5,6.1c4.5,0.8,4.5,0.8,4.6,5.7
	C158.7,420.1,157.7,421.3,156.6,422.8z"/>
<path class="st41" d="M72.3,348.2c-1.8,0.2-3.5,0.3-5.6,0.5c-3-18.3,1.2-34.9,12.7-49.3c10.1-12.6,23.2-20.5,39.2-22.8
	c18.6-2.7,35.4,1.7,49.9,13.7c8.9,7.3,15.6,16.4,19.2,27.6c0.5,1.5,1.1,3,1.7,4.7c-1.4,2.1-2.9,3.9-4.8,5.7
	c-0.7-1.4-1.2-2.7-1.5-4.1c-5.9-23.2-27-41.3-53.2-42.2c-10.9-0.4-21.3,2.4-30.7,8.3c-12.8,8.1-21.5,19.3-25.5,34
	C71.6,332.2,71.7,340.2,72.3,348.2z"/>
<path class="st42" d="M174.7,339.9c-0.4-1-0.8-2.1-0.8-3.1c-0.3-21.8-17.5-40.7-39.4-43.4c-26.7-3.2-48.4,15.5-51.3,39.8
	c-2.9,24.8,13.9,46.1,36.8,50.2c5.3,0.9,10.9,0.6,16.6,0.8c-1,1.4-2.2,2.7-3.9,4.1c-2.8-0.2-5.3-0.4-7.7-0.5
	c-14.9-0.6-26.4-7.6-35.7-18.9c-4.6-5.6-7-12.2-9.3-18.8c0.3-0.5,0.7-1.1,1.2-1.9c-0.8-0.1-1.4-0.1-2.2-0.5c-0.4-3.9-0.7-7.4-0.7-11
	c0-12.7,4.8-23.5,13.4-32.5c10.3-10.9,23-15.8,38.2-15.8c19,0,38.5,13.2,45.2,31.2c1.8,4.9,2.9,10.1,4.3,15.2
	C177.9,336.4,176.4,338.1,174.7,339.9z"/>
<path class="st43" d="M179.5,334.5c-1.6-5-2.6-10.2-4.4-15.1c-6.7-17.9-26.2-31.1-45.2-31.2c-15.2,0-27.9,4.9-38.2,15.8
	c-8.6,9.1-13.4,19.9-13.4,32.5c0,3.6,0.3,7.1,0.5,11c-2,0.4-4,0.6-6.3,0.7c-0.9-8.1-0.9-16.1,1.2-24c4-14.7,12.7-25.9,25.5-34
	c9.4-5.9,19.8-8.6,30.7-8.3c26.2,0.9,47.3,18.9,53.2,42.2c0.3,1.3,0.8,2.7,1.4,4.2C183,330.5,181.4,332.5,179.5,334.5z"/>
<path class="st29" d="M56.5,426.6c-0.2-6.4-0.2-12.8,0-19.5c1.3,0.4,2.5,1,3.3,1.9c10.7,10.7,23.3,18.4,37.6,22.9
	c6.8,2.2,13.9,3.2,20.9,4.8c0,4.6,0.1,9.2,0,14.1c-11.4-0.1-22.2-3.1-32.6-7.4c-9.7-4-18.8-9-27-15.6
	C58.2,427.2,57.4,427,56.5,426.6z"/>
<path class="st37" d="M118.3,436.4c-7-1.3-14.1-2.4-20.9-4.5c-14.3-4.5-26.9-12.2-37.6-22.9c-0.9-0.9-2.1-1.4-3.3-2.2
	c-0.2-6.2-0.3-12.4-0.3-18.9c2.4,2.2,4.8,4.6,7.1,7.2c9.8,11.6,21.9,19.9,36.3,24.7c5.9,2,12.1,2.9,18.5,4.3
	C118.3,428.1,118.3,432.1,118.3,436.4z"/>
<path class="st43" d="M79.9,350.1c2.5,6.6,4.9,13.2,9.5,18.7c9.3,11.2,20.7,18.3,35.7,18.9c2.4,0.1,4.9,0.3,7.5,0.6
	c-1.9,2.8-4,5.5-6.5,8.3c-3.8-0.5-7.3-0.7-10.7-1.6C96.5,390.2,83,378.7,75,360.9c-0.4-0.9-1.2-1.7-1.8-2.6c0.1-0.1,0.1-0.2,0.4-0.5
	c0.3-0.3,0.4-0.4,0.5-0.6C76,354.9,77.9,352.6,79.9,350.1z"/>
<path class="st41" d="M73.1,358.4c0.8,0.8,1.5,1.5,2,2.5c8,17.9,21.4,29.3,40.4,34.1c3.3,0.8,6.8,1.1,10.5,1.7
	c-1.7,2.4-3.6,4.7-5.8,7.2c-0.4,0.3-0.5,0.5-0.6,0.6c0,0-0.1,0.3-0.2,0.4c-3.6-1.1-7-2.2-10.4-3.3c-19-6.4-32.8-18.4-40.7-37.1
	C69.7,362.3,71.3,360.4,73.1,358.4z"/>
<path class="st35" d="M119.7,404.4c-0.1-0.1,0-0.3,0.3-0.5C120.1,404,120,404.2,119.7,404.4z"/>
<path class="st41" d="M74,357.3c0.1,0.1,0,0.2-0.2,0.4C73.6,357.6,73.7,357.4,74,357.3z"/>
<path class="st44" d="M100.2,329.6c4.8-13.1,15.5-20.8,28.6-20.8c14.3,0,26.7,10.9,29.1,25.1c2.9,17.3-10.3,34.8-30.3,34.6
	c-13.6-0.1-25.4-10.4-28.3-24C98.2,339.5,98.7,334.7,100.2,329.6 M145.2,325.3c-4.5-5.4-10.3-8.3-17.2-8
	c-12.8,0.6-22,10.9-20.5,24.1c1.7,15.4,18.8,23.5,32.2,15.5C149.8,350.9,153.6,336.8,145.2,325.3z"/>
<path class="st45" d="M145.4,325.4c8.3,11.3,4.4,25.4-5.6,31.4c-13.4,7.9-30.5-0.1-32.2-15.5c-1.5-13.2,7.7-23.4,20.5-24.1
	C134.9,316.9,140.7,319.9,145.4,325.4 M141,339.4c-0.3-7.3-4.1-11.8-11.1-13.1c-4.8-0.9-10.7,2.6-12.8,7.7c-2,4.7-0.9,9.1,2.2,12.8
	c2.9,3.3,6.7,4.8,11.2,3.9C136.6,349.6,139.8,345.7,141,339.4z"/>
<path class="st46" d="M140.9,339.7c-1.2,6.1-4.3,9.9-10.4,11.1c-4.5,0.8-8.4-0.6-11.2-3.9c-3.2-3.7-4.2-8-2.2-12.8
	c2.2-5.1,8-8.6,12.8-7.7C136.9,327.7,140.7,332.1,140.9,339.7z"/>
</svg>
